<svg id="visual" viewBox="0 0 900 600" width="900" height="600" xmlns="http://www.w3.org/2000/svg" xmlns:xlink="http://www.w3.org/1999/xlink" version="1.1"><g stroke-width="1" stroke-linejoin="bevel"><path d="M479 255.1L548 289.1L488 183.4Z" fill="#49365a" stroke="#49365a"></path><path d="M629 182.4L560 131.4L488 183.4Z" fill="#49365a" stroke="#49365a"></path><path d="M548 289.1L629 182.4L488 183.4Z" fill="#49365a" stroke="#49365a"></path><path d="M477 357.9L569 326.9L548 289.1Z" fill="#49365a" stroke="#49365a"></path><path d="M548 289.1L668 220.1L629 182.4Z" fill="#372a42" stroke="#372a42"></path><path d="M569 326.9L668 220.1L548 289.1Z" fill="#2e2537" stroke="#2e2537"></path><path d="M479 255.1L477 357.9L548 289.1Z" fill="#33283c" stroke="#33283c"></path><path d="M560 131.4L468 84.7L488 183.4Z" fill="#40304e" stroke="#40304e"></path><path d="M352 274.1L389 313.9L479 255.1Z" fill="#2a2231" stroke="#2a2231"></path><path d="M479 255.1L389 313.9L477 357.9Z" fill="#573e6d" stroke="#573e6d"></path><path d="M629 182.4L651 112.7L560 131.4Z" fill="#372a42" stroke="#372a42"></path><path d="M560 131.4L549 61.7L468 84.7Z" fill="#3b2d48" stroke="#3b2d48"></path><path d="M702 193.4L651 112.7L629 182.4Z" fill="#40304e" stroke="#40304e"></path><path d="M651 112.7L549 61.7L560 131.4Z" fill="#3b2d48" stroke="#3b2d48"></path><path d="M648 410.6L652 348.9L569 326.9Z" fill="#523b67" stroke="#523b67"></path><path d="M569 326.9L652 348.9L668 220.1Z" fill="#573e6d" stroke="#573e6d"></path><path d="M737 284.1L702 193.4L668 220.1Z" fill="#523b67" stroke="#523b67"></path><path d="M668 220.1L702 193.4L629 182.4Z" fill="#49365a" stroke="#49365a"></path><path d="M352 274.1L479 255.1L488 183.4Z" fill="#33283c" stroke="#33283c"></path><path d="M357 132.4L352 274.1L488 183.4Z" fill="#4e3860" stroke="#4e3860"></path><path d="M468 84.7L357 132.4L488 183.4Z" fill="#2a2231" stroke="#2a2231"></path><path d="M652 348.9L737 284.1L668 220.1Z" fill="#3b2d48" stroke="#3b2d48"></path><path d="M522 467.6L648 410.6L569 326.9Z" fill="#49365a" stroke="#49365a"></path><path d="M652 348.9L735 339.9L737 284.1Z" fill="#33283c" stroke="#33283c"></path><path d="M619 0L556 0L549 61.7Z" fill="#372a42" stroke="#372a42"></path><path d="M549 61.7L468 0L468 84.7Z" fill="#573e6d" stroke="#573e6d"></path><path d="M468 84.7L338 53.7L357 132.4Z" fill="#49365a" stroke="#49365a"></path><path d="M727 416.6L735 339.9L652 348.9Z" fill="#372a42" stroke="#372a42"></path><path d="M794 164.4L738 108.7L702 193.4Z" fill="#523b67" stroke="#523b67"></path><path d="M702 193.4L738 108.7L651 112.7Z" fill="#33283c" stroke="#33283c"></path><path d="M651 112.7L619 0L549 61.7Z" fill="#573e6d" stroke="#573e6d"></path><path d="M389 313.9L413 425.6L477 357.9Z" fill="#573e6d" stroke="#573e6d"></path><path d="M477 357.9L522 467.6L569 326.9Z" fill="#372a42" stroke="#372a42"></path><path d="M287 307.9L413 425.6L389 313.9Z" fill="#2e2537" stroke="#2e2537"></path><path d="M556 0L468 0L549 61.7Z" fill="#372a42" stroke="#372a42"></path><path d="M750 0L619 0L651 112.7Z" fill="#33283c" stroke="#33283c"></path><path d="M413 425.6L522 467.6L477 357.9Z" fill="#2e2537" stroke="#2e2537"></path><path d="M258 121.7L284 193.4L357 132.4Z" fill="#372a42" stroke="#372a42"></path><path d="M357 132.4L284 193.4L352 274.1Z" fill="#40304e" stroke="#40304e"></path><path d="M352 274.1L287 307.9L389 313.9Z" fill="#33283c" stroke="#33283c"></path><path d="M284 193.4L287 307.9L352 274.1Z" fill="#453354" stroke="#453354"></path><path d="M468 0L338 53.7L468 84.7Z" fill="#523b67" stroke="#523b67"></path><path d="M737 284.1L794 164.4L702 193.4Z" fill="#573e6d" stroke="#573e6d"></path><path d="M812 275.1L794 164.4L737 284.1Z" fill="#3b2d48" stroke="#3b2d48"></path><path d="M687 498.3L727 416.6L648 410.6Z" fill="#49365a" stroke="#49365a"></path><path d="M648 410.6L727 416.6L652 348.9Z" fill="#33283c" stroke="#33283c"></path><path d="M735 339.9L780 350.9L737 284.1Z" fill="#453354" stroke="#453354"></path><path d="M727 416.6L780 350.9L735 339.9Z" fill="#2a2231" stroke="#2a2231"></path><path d="M275 457.6L392 459.6L413 425.6Z" fill="#573e6d" stroke="#573e6d"></path><path d="M413 425.6L483 497.3L522 467.6Z" fill="#33283c" stroke="#33283c"></path><path d="M392 459.6L483 497.3L413 425.6Z" fill="#2e2537" stroke="#2e2537"></path><path d="M522 467.6L645 488.3L648 410.6Z" fill="#49365a" stroke="#49365a"></path><path d="M780 350.9L812 275.1L737 284.1Z" fill="#3b2d48" stroke="#3b2d48"></path><path d="M556 527.3L645 488.3L522 467.6Z" fill="#4e3860" stroke="#4e3860"></path><path d="M900 204.4L809 116.7L794 164.4Z" fill="#372a42" stroke="#372a42"></path><path d="M794 164.4L809 116.7L738 108.7Z" fill="#573e6d" stroke="#573e6d"></path><path d="M738 108.7L750 0L651 112.7Z" fill="#372a42" stroke="#372a42"></path><path d="M338 53.7L258 121.7L357 132.4Z" fill="#2e2537" stroke="#2e2537"></path><path d="M284 193.4L235 279.1L287 307.9Z" fill="#3b2d48" stroke="#3b2d48"></path><path d="M468 0L342 0L338 53.7Z" fill="#573e6d" stroke="#573e6d"></path><path d="M338 53.7L263 0L258 121.7Z" fill="#523b67" stroke="#523b67"></path><path d="M483 497.3L556 527.3L522 467.6Z" fill="#33283c" stroke="#33283c"></path><path d="M203 240.1L235 279.1L284 193.4Z" fill="#4e3860" stroke="#4e3860"></path><path d="M287 307.9L275 457.6L413 425.6Z" fill="#2e2537" stroke="#2e2537"></path><path d="M809 116.7L750 0L738 108.7Z" fill="#523b67" stroke="#523b67"></path><path d="M657 600L687 498.3L645 488.3Z" fill="#3b2d48" stroke="#3b2d48"></path><path d="M645 488.3L687 498.3L648 410.6Z" fill="#40304e" stroke="#40304e"></path><path d="M727 416.6L803 440.6L780 350.9Z" fill="#40304e" stroke="#40304e"></path><path d="M180 202.4L203 240.1L284 193.4Z" fill="#453354" stroke="#453354"></path><path d="M808 484.3L803 440.6L727 416.6Z" fill="#523b67" stroke="#523b67"></path><path d="M900 358.9L900 238.1L812 275.1Z" fill="#33283c" stroke="#33283c"></path><path d="M141 396.6L275 457.6L287 307.9Z" fill="#573e6d" stroke="#573e6d"></path><path d="M392 459.6L394 600L483 497.3Z" fill="#372a42" stroke="#372a42"></path><path d="M476 600L563 600L556 527.3Z" fill="#372a42" stroke="#372a42"></path><path d="M144 334.9L287 307.9L235 279.1Z" fill="#2a2231" stroke="#2a2231"></path><path d="M342 0L263 0L338 53.7Z" fill="#523b67" stroke="#523b67"></path><path d="M258 121.7L180 202.4L284 193.4Z" fill="#523b67" stroke="#523b67"></path><path d="M809 116.7L810 0L750 0Z" fill="#2a2231" stroke="#2a2231"></path><path d="M900 66.7L810 0L809 116.7Z" fill="#40304e" stroke="#40304e"></path><path d="M161 72.7L180 202.4L258 121.7Z" fill="#49365a" stroke="#49365a"></path><path d="M203 240.1L144 334.9L235 279.1Z" fill="#372a42" stroke="#372a42"></path><path d="M900 358.9L812 275.1L780 350.9Z" fill="#3b2d48" stroke="#3b2d48"></path><path d="M812 275.1L900 204.4L794 164.4Z" fill="#2a2231" stroke="#2a2231"></path><path d="M900 238.1L900 204.4L812 275.1Z" fill="#2e2537" stroke="#2e2537"></path><path d="M275 457.6L336 542.3L392 459.6Z" fill="#2e2537" stroke="#2e2537"></path><path d="M687 498.3L808 484.3L727 416.6Z" fill="#49365a" stroke="#49365a"></path><path d="M803 440.6L900 358.9L780 350.9Z" fill="#2e2537" stroke="#2e2537"></path><path d="M700 600L808 484.3L687 498.3Z" fill="#2a2231" stroke="#2a2231"></path><path d="M476 600L556 527.3L483 497.3Z" fill="#3b2d48" stroke="#3b2d48"></path><path d="M556 527.3L657 600L645 488.3Z" fill="#4e3860" stroke="#4e3860"></path><path d="M394 600L476 600L483 497.3Z" fill="#4e3860" stroke="#4e3860"></path><path d="M900 459.6L900 358.9L803 440.6Z" fill="#2e2537" stroke="#2e2537"></path><path d="M563 600L657 600L556 527.3Z" fill="#33283c" stroke="#33283c"></path><path d="M900 204.4L900 66.7L809 116.7Z" fill="#523b67" stroke="#523b67"></path><path d="M336 542.3L394 600L392 459.6Z" fill="#573e6d" stroke="#573e6d"></path><path d="M263 0L161 72.7L258 121.7Z" fill="#523b67" stroke="#523b67"></path><path d="M126 311.9L203 240.1L180 202.4Z" fill="#453354" stroke="#453354"></path><path d="M126 311.9L144 334.9L203 240.1Z" fill="#33283c" stroke="#33283c"></path><path d="M275 457.6L254 527.3L336 542.3Z" fill="#2a2231" stroke="#2a2231"></path><path d="M657 600L700 600L687 498.3Z" fill="#40304e" stroke="#40304e"></path><path d="M163 484.3L254 527.3L275 457.6Z" fill="#372a42" stroke="#372a42"></path><path d="M336 542.3L259 600L394 600Z" fill="#372a42" stroke="#372a42"></path><path d="M92 181.4L126 311.9L180 202.4Z" fill="#523b67" stroke="#523b67"></path><path d="M144 334.9L141 396.6L287 307.9Z" fill="#372a42" stroke="#372a42"></path><path d="M263 0L182 0L161 72.7Z" fill="#3b2d48" stroke="#3b2d48"></path><path d="M900 66.7L900 0L810 0Z" fill="#3b2d48" stroke="#3b2d48"></path><path d="M71 409.6L141 396.6L144 334.9Z" fill="#3b2d48" stroke="#3b2d48"></path><path d="M808 484.3L900 459.6L803 440.6Z" fill="#523b67" stroke="#523b67"></path><path d="M900 529.3L900 459.6L808 484.3Z" fill="#33283c" stroke="#33283c"></path><path d="M81 0L105 120.7L161 72.7Z" fill="#372a42" stroke="#372a42"></path><path d="M161 72.7L105 120.7L180 202.4Z" fill="#33283c" stroke="#33283c"></path><path d="M105 120.7L92 181.4L180 202.4Z" fill="#2e2537" stroke="#2e2537"></path><path d="M126 311.9L71 409.6L144 334.9Z" fill="#40304e" stroke="#40304e"></path><path d="M141 396.6L163 484.3L275 457.6Z" fill="#372a42" stroke="#372a42"></path><path d="M254 527.3L259 600L336 542.3Z" fill="#2a2231" stroke="#2a2231"></path><path d="M700 600L812 600L808 484.3Z" fill="#3b2d48" stroke="#3b2d48"></path><path d="M162 600L259 600L254 527.3Z" fill="#573e6d" stroke="#573e6d"></path><path d="M812 600L900 529.3L808 484.3Z" fill="#4e3860" stroke="#4e3860"></path><path d="M92 181.4L56 268.1L126 311.9Z" fill="#2a2231" stroke="#2a2231"></path><path d="M141 396.6L117 476.3L163 484.3Z" fill="#453354" stroke="#453354"></path><path d="M0 253.1L56 268.1L92 181.4Z" fill="#3b2d48" stroke="#3b2d48"></path><path d="M71 409.6L117 476.3L141 396.6Z" fill="#3b2d48" stroke="#3b2d48"></path><path d="M163 484.3L162 600L254 527.3Z" fill="#4e3860" stroke="#4e3860"></path><path d="M0 369.9L71 409.6L126 311.9Z" fill="#33283c" stroke="#33283c"></path><path d="M182 0L81 0L161 72.7Z" fill="#372a42" stroke="#372a42"></path><path d="M0 143.4L0 253.1L92 181.4Z" fill="#40304e" stroke="#40304e"></path><path d="M812 600L900 600L900 529.3Z" fill="#2a2231" stroke="#2a2231"></path><path d="M95 600L162 600L117 476.3Z" fill="#2a2231" stroke="#2a2231"></path><path d="M117 476.3L162 600L163 484.3Z" fill="#573e6d" stroke="#573e6d"></path><path d="M56 268.1L0 369.9L126 311.9Z" fill="#2e2537" stroke="#2e2537"></path><path d="M0 143.4L92 181.4L105 120.7Z" fill="#453354" stroke="#453354"></path><path d="M0 87.7L0 143.4L105 120.7Z" fill="#33283c" stroke="#33283c"></path><path d="M81 0L0 87.7L105 120.7Z" fill="#523b67" stroke="#523b67"></path><path d="M0 253.1L0 369.9L56 268.1Z" fill="#372a42" stroke="#372a42"></path><path d="M71 409.6L0 495.3L117 476.3Z" fill="#523b67" stroke="#523b67"></path><path d="M0 369.9L0 396.6L71 409.6Z" fill="#2e2537" stroke="#2e2537"></path><path d="M0 495.3L95 600L117 476.3Z" fill="#3b2d48" stroke="#3b2d48"></path><path d="M81 0L0 0L0 87.7Z" fill="#3b2d48" stroke="#3b2d48"></path><path d="M0 396.6L0 495.3L71 409.6Z" fill="#3b2d48" stroke="#3b2d48"></path><path d="M0 495.3L0 600L95 600Z" fill="#453354" stroke="#453354"></path></g></svg>