<svg width="75" height="75" viewBox="0 0 75 75" fill="none" xmlns="http://www.w3.org/2000/svg">
<path d="M25.7813 19.9219L25.7812 35.1562L47.0215 35.1562C47.6431 35.1562 48.2392 35.4032 48.6788 35.8427C49.1183 36.2823 49.3652 36.8784 49.3652 37.5C49.3652 38.1216 49.1183 38.7177 48.6788 39.1573C48.2392 39.5968 47.6431 39.8438 47.0215 39.8438L25.7812 39.8437V55.0781C25.7836 57.253 26.6486 59.3382 28.1865 60.876C29.7243 62.4139 31.8095 63.2789 33.9844 63.2812L62.1094 63.2812C64.2843 63.2789 66.3694 62.4139 67.9073 60.876C69.4452 59.3382 70.3102 57.253 70.3125 55.0781V19.9219C70.3102 17.747 69.4452 15.6618 67.9073 14.124C66.3694 12.5861 64.2843 11.7211 62.1094 11.7188L33.9844 11.7187C31.8095 11.7211 29.7243 12.5861 28.1865 14.124C26.6486 15.6618 25.7836 17.747 25.7813 19.9219ZM12.6899 35.1562L20.4067 27.438C20.8277 26.9949 21.059 26.4048 21.0511 25.7937C21.0433 25.1825 20.797 24.5986 20.3649 24.1664C19.9327 23.7342 19.3487 23.4879 18.7376 23.4801C18.1264 23.4723 17.5364 23.7035 17.0933 24.1245L5.37451 35.8433C4.93531 36.2828 4.68859 36.8787 4.68859 37.5C4.68859 38.1213 4.93531 38.7172 5.37451 39.1567L17.0933 50.8755C17.5364 51.2965 18.1264 51.5277 18.7376 51.5199C19.3487 51.5121 19.9327 51.2658 20.3649 50.8336C20.797 50.4014 21.0433 49.8175 21.0511 49.2063C21.059 48.5952 20.8277 48.0051 20.4067 47.562L12.6899 39.8437H25.7812V35.1562H12.6899Z" fill="#FE7373"/>
</svg>
