<svg width="352" height="150" viewBox="0 0 352 150" fill="none" xmlns="http://www.w3.org/2000/svg">
<g filter="url(#filter0_d_5_661)">
<path fill-rule="evenodd" clip-rule="evenodd" d="M253.833 0.70375C250.135 0.70375 246.753 1.86654 244.123 3.81665C241.991 2.80127 239.546 2.21736 236.955 2.21736C228.59 2.21736 221.819 8.232 221.819 15.6399C221.819 17.0916 222.08 18.5002 222.561 19.8095C220.202 22.1747 218.763 25.2583 218.763 28.6627C218.763 29.8141 218.94 30.9377 219.249 32.0041C217.892 32.394 216.637 32.9389 215.479 33.6319C213.22 34.6652 211.271 36.1488 209.853 38.0014C209.85 38.0023 209.855 38.0288 209.853 38.0299C208.441 38.5591 207.111 39.1456 205.854 39.8005C203.462 34.261 198.894 30.2421 193.46 29.2909C190.646 26.7514 187.148 25.2356 183.322 25.2356C179.705 25.2356 176.344 26.5701 173.612 28.8626C171.079 27.0442 168.118 25.9781 164.93 25.9781C156.245 25.9781 149.124 33.7765 148.337 43.7131C146.795 43.1613 145.15 42.8563 143.454 42.8563C138.332 42.8563 133.747 45.5665 130.688 49.8246C129.844 49.7828 128.98 49.739 128.118 49.739C125.431 49.739 122.841 49.9489 120.35 50.3387C117.468 44.4884 112.078 40.5431 105.899 40.5431C98.8889 40.5431 92.8874 45.6143 90.4203 52.7948C87.7976 46.0298 82.0094 41.3142 75.2556 41.3142C70.161 41.3142 65.6063 44.0063 62.547 48.2254C60.5578 47.2436 58.3867 46.6832 56.0928 46.6832C49.2041 46.6832 43.2722 51.5807 40.7282 58.5636C38.2584 56.8694 35.4005 55.8791 32.3319 55.8791C26.1421 55.8791 20.7307 59.8355 17.8527 65.7033C16.653 65.0875 15.3052 64.7323 13.9116 64.7323C8.51193 64.7323 4.14453 69.8566 4.14453 76.1843C4.14453 82.5121 8.51193 87.6364 13.9116 87.6364C15.5505 87.6364 17.1243 87.1864 18.481 86.3512C18.539 86.4519 18.6213 86.5375 18.6809 86.6368C19.9605 90.3136 22.8241 93.0272 26.2775 93.6337C28.1522 94.4886 30.1993 94.976 32.3319 94.976C35.3299 94.976 38.1257 94.0284 40.5568 92.4057C41.7342 97.1841 45.4959 100.688 49.9527 100.688C50.6679 100.688 51.3661 100.601 52.0374 100.431C54.1528 101.453 56.5025 102.03 58.9772 102.03C61.072 102.03 63.068 101.605 64.9174 100.859C66.6415 102.655 68.9096 103.743 71.4002 103.743C74.5035 103.743 77.2629 102.045 79.0539 99.4025C83.0774 106.641 93.7755 111.957 106.613 112.54C108.299 115.983 111.464 118.308 115.095 118.308C118.351 118.308 121.229 116.435 123.006 113.568C123.93 114.552 124.968 115.5 126.147 116.366C126.905 121.81 130.94 125.962 135.8 125.962C138.446 125.962 140.837 124.736 142.597 122.735L142.854 122.764C144.326 126.907 147.81 129.817 151.879 129.817C153.047 129.817 154.181 129.573 155.22 129.132C161.008 133.1 169.399 135.586 178.724 135.586C191.086 135.586 201.767 131.209 206.968 124.82C207.677 124.79 208.386 124.735 209.082 124.677C211.037 125.516 213.203 126.019 215.507 126.019C221.825 126.019 227.23 122.488 229.501 117.48C229.88 117.187 230.235 116.902 230.586 116.595C231.415 116.723 232.26 116.823 233.128 116.823C234.44 116.823 235.712 116.652 236.926 116.366C238.613 119.81 241.777 122.135 245.408 122.135C249.353 122.135 252.745 119.395 254.29 115.452C255.136 115.582 256.001 115.652 256.889 115.652C259.778 115.652 262.474 114.925 264.771 113.682C266.519 115.602 268.869 116.766 271.454 116.766C275.603 116.766 279.144 113.729 280.564 109.455C280.972 109.498 281.375 109.541 281.792 109.541C282.818 109.541 283.821 109.392 284.791 109.141C286.419 110.563 288.43 111.397 290.617 111.397C294.647 111.397 298.117 108.538 299.613 104.457C301.907 105.732 304.61 106.456 307.495 106.456C313.381 106.456 318.468 103.413 320.975 98.9455C322.726 99.5902 324.653 99.9451 326.658 99.9451C335.022 99.9451 341.794 93.7708 341.794 86.1512C341.794 85.2487 341.69 84.3781 341.508 83.5238C342.674 81.569 343.336 79.3365 343.336 76.9553C343.336 72.5079 341.011 68.5689 337.424 66.0459C337.773 64.8848 337.967 63.6521 337.967 62.3904C337.967 54.7708 331.167 48.5966 322.802 48.5966C322.062 48.5966 321.343 48.6745 320.632 48.7679C320.924 47.7278 321.089 46.6609 321.089 45.5408C321.089 38.1328 314.317 32.1182 305.953 32.1182C305.711 32.1182 305.478 32.1368 305.239 32.1467C303.55 28.7158 300.38 26.4064 296.757 26.4064C295.341 26.4064 294.002 26.7718 292.787 27.406C289.038 20.9816 279.993 16.1292 268.912 14.8402C268.927 14.5925 268.969 14.3486 268.969 14.0976C268.969 6.6897 262.198 0.70375 253.833 0.70375ZM291.959 50.6814C292.524 51.8858 293.299 52.9973 294.215 53.9942C293.374 53.8829 292.509 53.8063 291.645 53.7372C291.868 52.8203 291.959 51.8861 291.959 50.9099C291.959 50.8329 291.961 50.7582 291.959 50.6814ZM258.545 53.3945C259.667 53.4928 260.816 53.5423 261.972 53.5659C262.119 54.2068 262.355 54.818 262.601 55.4222C261.294 54.7895 259.891 54.2384 258.431 53.7372C258.467 53.6232 258.513 53.5098 258.545 53.3945Z" fill="url(#paint0_linear_5_661)"/>
<path fill-rule="evenodd" clip-rule="evenodd" d="M254.22 0.793747C250.521 0.793747 247.14 1.95654 244.51 3.90664C242.377 2.89127 239.932 2.30736 237.341 2.30736C236.065 2.30736 234.841 2.47223 233.657 2.73574C236.33 4.77144 238.852 6.89968 241.168 9.07576C251.495 10.2143 259.503 18.451 259.503 28.4671C259.503 30.6505 259.12 32.7608 258.418 34.7215C259.921 39.3003 260.731 44.0111 260.731 48.8294C260.731 48.8477 260.731 48.8674 260.731 48.8866C264.798 52.4542 267.328 57.5229 267.328 63.1659C267.328 73.8627 258.187 82.5723 246.851 82.7286C246.506 83.1269 246.152 83.5334 245.795 83.928C246.679 85.8876 247.166 88.0004 247.166 90.1824C247.166 100.977 235.45 109.717 220.977 109.717C219.69 109.717 218.417 109.65 217.179 109.517C214.958 118.968 201.787 126.223 185.879 126.223C180.326 126.223 175.107 125.35 170.571 123.796C167.547 127.274 163.221 129.815 158.262 130.85C163.832 133.871 171.117 135.676 179.11 135.676C191.472 135.676 202.154 131.299 207.355 124.91C208.064 124.88 208.773 124.826 209.468 124.767C211.424 125.606 213.589 126.109 215.894 126.109C222.212 126.109 227.616 122.578 229.888 117.57C230.267 117.277 230.621 116.992 230.973 116.685C231.801 116.813 232.646 116.913 233.515 116.913C234.826 116.913 236.099 116.742 237.313 116.456C238.999 119.9 242.164 122.225 245.795 122.225C249.74 122.225 253.131 119.485 254.677 115.543C255.523 115.672 256.387 115.742 257.275 115.742C260.165 115.742 262.86 115.015 265.158 113.772C266.906 115.692 269.255 116.856 271.84 116.856C275.99 116.856 279.531 113.819 280.951 109.545C281.359 109.588 281.762 109.631 282.179 109.631C283.205 109.631 284.208 109.482 285.177 109.231C286.806 110.653 288.816 111.487 291.003 111.487C295.034 111.487 298.503 108.628 299.999 104.547C302.294 105.822 304.997 106.546 307.881 106.546C313.768 106.546 318.854 103.503 321.361 99.0356C323.113 99.6802 325.039 100.035 327.044 100.035C335.409 100.035 342.18 93.8609 342.18 86.2413C342.18 85.3388 342.076 84.4681 341.895 83.6139C343.061 81.659 343.722 79.4265 343.722 77.0454C343.722 72.5979 341.398 68.659 337.811 66.136C338.159 64.9749 338.353 63.7423 338.353 62.4805C338.353 54.8609 331.553 48.6866 323.189 48.6867C322.449 48.6867 321.73 48.7644 321.018 48.858C321.31 47.8179 321.475 46.751 321.475 45.6309C321.475 38.2229 314.704 32.2083 306.339 32.2083C306.097 32.2083 305.864 32.227 305.625 32.2368C303.936 28.8059 300.766 26.4965 297.143 26.4965C295.728 26.4965 294.388 26.8619 293.174 27.4961C289.424 21.0717 280.38 16.2193 269.299 14.9302C269.314 14.6826 269.356 14.4387 269.356 14.1877C269.356 6.77978 262.584 0.793747 254.22 0.793747ZM292.345 50.7714C292.91 51.9758 293.686 53.0873 294.602 54.0842C293.761 53.9729 292.895 53.8963 292.031 53.8273C292.255 52.9102 292.345 51.9761 292.345 50.9999C292.345 50.9231 292.347 50.8482 292.345 50.7714Z" fill="url(#paint1_linear_5_661)"/>
<path fill-rule="evenodd" clip-rule="evenodd" d="M151.66 105.261C152.986 105.261 154.224 105.646 155.273 106.296H155.365C159.043 106.296 162.053 109.181 162.237 112.813C162.243 112.93 162.237 113.05 162.237 113.168C162.237 114.163 162.018 115.106 161.638 115.96C162.371 117.053 162.795 118.361 162.795 119.776C162.795 119.895 162.802 120.015 162.795 120.132C162.611 123.764 159.601 126.649 155.923 126.649C155.56 126.649 155.206 126.621 154.857 126.567C153.779 127.271 152.486 127.684 151.101 127.684C149.76 127.684 148.505 127.302 147.447 126.638C147.313 126.647 147.178 126.649 147.041 126.649C143.245 126.649 140.159 123.573 140.159 119.776C140.159 118.776 140.382 117.83 140.768 116.975C140.033 115.885 139.601 114.583 139.601 113.168C139.601 109.372 142.686 106.296 146.483 106.296C146.946 106.296 147.396 106.341 147.833 106.428C148.928 105.691 150.24 105.261 151.66 105.261Z" fill="#734B02" stroke="black" stroke-width="1.06631"/>
<path fill-rule="evenodd" clip-rule="evenodd" d="M153.396 107.455C154.722 107.455 155.96 107.84 157.01 108.491H157.101C160.779 108.491 163.789 111.375 163.973 115.007C163.979 115.124 163.973 115.244 163.973 115.363C163.973 116.358 163.754 117.301 163.374 118.154C164.107 119.247 164.531 120.555 164.531 121.971C164.531 122.089 164.538 122.209 164.531 122.326C164.347 125.958 161.337 128.843 157.659 128.843C157.296 128.843 156.942 128.816 156.593 128.762C155.515 129.466 154.222 129.878 152.838 129.878C151.497 129.878 150.241 129.497 149.183 128.833C149.049 128.841 148.914 128.843 148.777 128.843C144.981 128.843 141.895 125.767 141.895 121.971C141.895 120.971 142.119 120.024 142.504 119.169C141.769 118.079 141.337 116.777 141.337 115.363C141.337 111.566 144.422 108.49 148.219 108.49C148.682 108.49 149.132 108.536 149.569 108.622C150.664 107.886 151.977 107.455 153.396 107.455Z" fill="#3B2906"/>
<path fill-rule="evenodd" clip-rule="evenodd" d="M227.603 104.765C228.929 104.765 230.167 105.15 231.217 105.8H231.308C234.986 105.8 237.996 108.685 238.181 112.317C238.187 112.434 238.181 112.554 238.181 112.672C238.181 113.667 237.961 114.61 237.582 115.464C238.314 116.557 238.739 117.865 238.739 119.28C238.739 119.399 238.745 119.518 238.739 119.636C238.555 123.268 235.545 126.152 231.867 126.152C231.503 126.152 231.149 126.125 230.801 126.071C229.722 126.775 228.43 127.188 227.045 127.188C225.704 127.188 224.449 126.806 223.391 126.142C223.256 126.151 223.121 126.152 222.985 126.152C219.188 126.152 216.102 123.077 216.102 119.28C216.102 118.28 216.326 117.334 216.712 116.479C215.977 115.388 215.544 114.087 215.544 112.672C215.544 108.876 218.63 105.8 222.426 105.8C222.89 105.8 223.34 105.845 223.777 105.932C224.872 105.195 226.184 104.765 227.603 104.765Z" fill="#734B02" stroke="black" stroke-width="1.06631"/>
<path fill-rule="evenodd" clip-rule="evenodd" d="M229.34 106.959C230.666 106.959 231.903 107.344 232.953 107.994H233.045C236.722 107.994 239.733 110.879 239.917 114.511C239.923 114.628 239.917 114.748 239.917 114.867C239.917 115.862 239.698 116.804 239.318 117.658C240.05 118.751 240.475 120.059 240.475 121.475C240.475 121.593 240.481 121.713 240.475 121.83C240.291 125.462 237.281 128.347 233.603 128.347C233.24 128.347 232.885 128.319 232.537 128.266C231.458 128.969 230.166 129.382 228.781 129.382C227.44 129.382 226.185 129.001 225.127 128.337C224.992 128.345 224.858 128.347 224.721 128.347C220.924 128.347 217.839 125.271 217.839 121.475C217.839 120.475 218.062 119.528 218.448 118.673C217.713 117.583 217.28 116.281 217.28 114.866C217.28 111.07 220.366 107.994 224.163 107.994C224.626 107.994 225.076 108.04 225.513 108.126C226.608 107.389 227.92 106.959 229.34 106.959Z" fill="#3B2906"/>
<path fill-rule="evenodd" clip-rule="evenodd" d="M327.156 62.192C329.202 62.192 331.111 62.7862 332.731 63.7893H332.872C338.546 63.7893 343.189 68.2396 343.473 73.843C343.483 74.0237 343.473 74.2081 343.473 74.3911C343.473 75.9264 343.136 77.3807 342.549 78.6976C343.68 80.3837 344.335 82.4018 344.335 84.5857C344.335 84.7687 344.345 84.9531 344.335 85.1338C344.051 90.7371 339.407 95.1875 333.733 95.1875C333.172 95.1875 332.626 95.1454 332.089 95.0621C330.425 96.1481 328.43 96.7847 326.294 96.7847C324.226 96.7847 322.289 96.196 320.657 95.1718C320.449 95.1845 320.241 95.1874 320.03 95.1874C314.174 95.1874 309.413 90.4426 309.413 84.5856C309.413 83.0429 309.758 81.583 310.353 80.2635C309.22 78.5815 308.552 76.5731 308.552 74.391C308.552 68.534 313.312 63.7892 319.169 63.7892C319.884 63.7892 320.578 63.8588 321.252 63.9928C322.942 62.8559 324.966 62.192 327.156 62.192Z" fill="#734B02" stroke="black" stroke-width="1.64503"/>
<path fill-rule="evenodd" clip-rule="evenodd" d="M329.834 65.5772C331.88 65.5772 333.789 66.1715 335.409 67.1746H335.55C341.224 67.1746 345.868 71.6249 346.152 77.2282C346.162 77.409 346.152 77.5933 346.152 77.7763C346.152 79.3116 345.814 80.766 345.228 82.0828C346.358 83.7689 347.013 85.7871 347.013 87.971C347.013 88.154 347.023 88.3383 347.013 88.5191C346.729 94.1224 342.085 98.5727 336.411 98.5727C335.851 98.5727 335.304 98.5306 334.767 98.4474C333.103 99.5333 331.109 100.17 328.973 100.17C326.904 100.17 324.967 99.5813 323.335 98.557C323.128 98.5697 322.92 98.5727 322.709 98.5727C316.852 98.5727 312.091 93.8278 312.091 87.9709C312.091 86.4282 312.436 84.9682 313.031 83.6487C311.898 81.9668 311.23 79.9583 311.23 77.7763C311.23 71.9193 315.99 67.1745 321.847 67.1745C322.562 67.1745 323.256 67.2441 323.93 67.378C325.62 66.2412 327.644 65.5772 329.834 65.5772Z" fill="#3B2906"/>
<path fill-rule="evenodd" clip-rule="evenodd" d="M281.241 43.481C282.647 43.481 283.96 43.8894 285.073 44.5789H285.17C289.07 44.5789 292.262 47.6378 292.457 51.4892C292.463 51.6135 292.457 51.7402 292.457 51.866C292.457 52.9212 292.224 53.9209 291.822 54.826C292.598 55.9849 293.049 57.3721 293.049 58.8731C293.049 58.9989 293.055 59.1256 293.049 59.2499C292.854 63.1013 289.662 66.1602 285.762 66.1602C285.376 66.1602 285.001 66.1313 284.632 66.074C283.488 66.8204 282.117 67.258 280.649 67.258C279.227 67.258 277.896 66.8534 276.774 66.1494C276.631 66.1585 276.488 66.1601 276.343 66.1601C272.318 66.1601 269.046 62.8988 269.046 58.8731C269.046 57.8127 269.283 56.8092 269.691 55.9023C268.913 54.7462 268.454 53.3657 268.454 51.8659C268.454 47.8402 271.726 44.5789 275.751 44.5789C276.243 44.5789 276.72 44.6267 277.183 44.7188C278.344 43.9374 279.736 43.481 281.241 43.481Z" fill="#734B02" stroke="black" stroke-width="1.1307"/>
<path opacity="0.8025" fill-rule="evenodd" clip-rule="evenodd" d="M284.615 47.3409C286.021 47.3409 287.333 47.7493 288.447 48.4388H288.543C292.443 48.4388 295.635 51.4977 295.831 55.3491C295.837 55.4733 295.831 55.6 295.831 55.7258C295.831 56.7811 295.598 57.7807 295.195 58.6858C295.972 59.8448 296.423 61.2319 296.423 62.733C296.423 62.8588 296.429 62.9855 296.423 63.1097C296.227 66.9611 293.035 70.02 289.135 70.02C288.75 70.02 288.375 69.9911 288.005 69.9339C286.862 70.6803 285.491 71.1179 284.023 71.1179C282.601 71.1179 281.27 70.7132 280.148 70.0092C280.005 70.0184 279.862 70.02 279.717 70.02C275.691 70.02 272.419 66.7587 272.419 62.733C272.419 61.6726 272.656 60.6691 273.065 59.7622C272.286 58.6061 271.827 57.2256 271.827 55.7258C271.827 51.7001 275.099 48.4387 279.125 48.4387C279.617 48.4387 280.094 48.4866 280.557 48.5786C281.718 47.7972 283.11 47.3409 284.615 47.3409Z" fill="#3B2906"/>
<path fill-rule="evenodd" clip-rule="evenodd" d="M32.9195 74.1058C34.2457 74.1058 35.4833 74.4909 36.5332 75.1411H36.6246C40.3024 75.1411 43.3126 78.0259 43.4967 81.658C43.5031 81.7751 43.4967 81.8946 43.4967 82.0133C43.4967 83.0084 43.2776 83.9511 42.8978 84.8047C43.6303 85.8977 44.055 87.2058 44.055 88.6214C44.055 88.7401 44.0614 88.8596 44.055 88.9767C43.8709 92.6088 40.8607 95.4935 37.1829 95.4935C36.8195 95.4935 36.4653 95.4663 36.117 95.4123C35.0385 96.1162 33.7458 96.5289 32.3612 96.5289C31.0202 96.5289 29.7648 96.1473 28.7069 95.4834C28.5724 95.4916 28.4375 95.4935 28.3009 95.4935C24.5044 95.4935 21.4186 92.4179 21.4186 88.6214C21.4186 87.6214 21.6423 86.6751 22.0277 85.8198C21.2932 84.7295 20.8604 83.4276 20.8604 82.0132C20.8604 78.2167 23.9461 75.1411 27.7426 75.1411C28.206 75.1411 28.6558 75.1862 29.0927 75.2731C30.188 74.5361 31.5002 74.1058 32.9195 74.1058Z" fill="#734B02" stroke="black" stroke-width="1.06631"/>
<path fill-rule="evenodd" clip-rule="evenodd" d="M34.6556 76.3001C35.9817 76.3001 37.2194 76.6853 38.2693 77.3355H38.3607C42.0385 77.3355 45.0486 80.2202 45.2328 83.8523C45.2392 83.9695 45.2328 84.0889 45.2328 84.2076C45.2328 85.2027 45.0137 86.1455 44.6339 86.9991C45.3664 88.092 45.7911 89.4002 45.7911 90.8158C45.7911 90.9344 45.7974 91.0539 45.7911 91.171C45.6069 94.8031 42.5968 97.6879 38.9189 97.6879C38.5556 97.6879 38.2014 97.6605 37.8531 97.6066C36.7745 98.3105 35.4818 98.7232 34.0973 98.7232C32.7563 98.7232 31.5009 98.3416 30.443 97.6777C30.3085 97.6859 30.1736 97.6878 30.037 97.6878C26.2405 97.6878 23.1547 94.6122 23.1547 90.8157C23.1547 89.8157 23.3783 88.8694 23.7638 88.0141C23.0293 86.9238 22.5964 85.622 22.5964 84.2075C22.5964 80.4111 25.6822 77.3354 29.4787 77.3354C29.9421 77.3354 30.3919 77.3806 30.8287 77.4674C31.9241 76.7305 33.2363 76.3001 34.6556 76.3001Z" fill="#3B2906"/>
<path fill-rule="evenodd" clip-rule="evenodd" d="M103.435 78.7046C104.761 78.7046 105.999 79.0898 107.049 79.74H107.14C110.818 79.74 113.828 82.6248 114.012 86.2568C114.018 86.374 114.012 86.4935 114.012 86.6121C114.012 87.6073 113.793 88.55 113.413 89.4036C114.146 90.4965 114.57 91.8047 114.57 93.2203C114.57 93.3389 114.577 93.4584 114.57 93.5756C114.386 97.2077 111.376 100.092 107.698 100.092C107.335 100.092 106.981 100.065 106.632 100.011C105.554 100.715 104.261 101.128 102.877 101.128C101.536 101.128 100.28 100.746 99.2223 100.082C99.0878 100.09 98.9529 100.092 98.8163 100.092C95.0198 100.092 91.934 97.0168 91.934 93.2203C91.934 92.2203 92.1576 91.2739 92.5431 90.4186C91.8086 89.3284 91.3757 88.0265 91.3757 86.6121C91.3757 82.8156 94.4615 79.74 98.258 79.74C98.7214 79.74 99.1712 79.7851 99.608 79.8719C100.703 79.135 102.016 78.7046 103.435 78.7046Z" fill="#734B02" stroke="black" stroke-width="1.06631"/>
<path fill-rule="evenodd" clip-rule="evenodd" d="M105.171 80.899C106.497 80.899 107.735 81.2842 108.785 81.9344H108.876C112.554 81.9344 115.564 84.8191 115.748 88.4512C115.755 88.5683 115.748 88.6878 115.748 88.8065C115.748 89.8016 115.529 90.7443 115.149 91.5979C115.882 92.6909 116.306 93.999 116.306 95.4146C116.306 95.5333 116.313 95.6528 116.306 95.7699C116.122 99.402 113.112 102.287 109.434 102.287C109.071 102.287 108.717 102.259 108.368 102.206C107.29 102.909 105.997 103.322 104.613 103.322C103.272 103.322 102.016 102.94 100.958 102.277C100.824 102.285 100.689 102.287 100.552 102.287C96.7559 102.287 93.6701 99.2111 93.6701 95.4146C93.6701 94.4146 93.8937 93.4683 94.2792 92.613C93.5446 91.5227 93.1118 90.2208 93.1118 88.8064C93.1118 85.0099 96.1976 81.9343 99.9941 81.9343C100.458 81.9343 100.907 81.9795 101.344 82.0663C102.439 81.3294 103.752 80.899 105.171 80.899Z" fill="#3B2906" fill-opacity="0.507"/>
<path fill-rule="evenodd" clip-rule="evenodd" d="M253.668 70.1736C255.005 70.1736 256.252 70.4152 257.311 70.823H257.403C261.111 70.823 264.145 72.6322 264.331 74.9102C264.337 74.9837 264.331 75.0586 264.331 75.133C264.331 75.7571 264.11 76.3484 263.727 76.8838C264.466 77.5692 264.894 78.3897 264.894 79.2775C264.894 79.3519 264.9 79.4269 264.894 79.5003C264.708 81.7783 261.674 83.5875 257.966 83.5875C257.599 83.5875 257.242 83.5705 256.891 83.5366C255.804 83.9781 254.501 84.2369 253.105 84.2369C251.753 84.2369 250.487 83.9976 249.421 83.5812C249.285 83.5867 249.149 83.5876 249.011 83.5876C245.184 83.5876 242.073 81.6586 242.073 79.2776C242.073 78.6504 242.298 78.0569 242.687 77.5204C241.946 76.8367 241.51 76.0201 241.51 75.1331C241.51 72.752 244.621 70.823 248.448 70.823C248.916 70.823 249.369 70.8513 249.81 70.9058C250.914 70.4436 252.237 70.1736 253.668 70.1736Z" fill="#734B02" stroke="black" stroke-width="0.8479"/>
<path fill-rule="evenodd" clip-rule="evenodd" d="M255.418 71.5498C256.755 71.5498 258.003 71.7914 259.061 72.1992H259.153C262.861 72.1992 265.896 74.0084 266.081 76.2864C266.088 76.3599 266.081 76.4348 266.081 76.5092C266.081 77.1334 265.86 77.7246 265.477 78.26C266.216 78.9454 266.644 79.7659 266.644 80.6537C266.644 80.7281 266.651 80.8031 266.644 80.8766C266.459 83.1545 263.424 84.9638 259.716 84.9638C259.35 84.9638 258.993 84.9467 258.641 84.9128C257.554 85.3543 256.251 85.6131 254.855 85.6131C253.503 85.6131 252.237 85.3737 251.171 84.9574C251.035 84.9628 250.899 84.9637 250.762 84.9637C246.934 84.9637 243.823 83.0348 243.823 80.6537C243.823 80.0265 244.049 79.433 244.437 78.8966C243.697 78.2128 243.26 77.3963 243.26 76.5092C243.26 74.1281 246.371 72.1992 250.199 72.1992C250.666 72.1992 251.119 72.2275 251.56 72.2819C252.664 71.8198 253.987 71.5498 255.418 71.5498Z" fill="#3B2906" fill-opacity="0.507"/>
<path fill-rule="evenodd" clip-rule="evenodd" d="M78.8533 42.6191C80.1903 42.6191 81.4381 42.8607 82.4965 43.2685H82.5887C86.2965 43.2685 89.3312 45.0778 89.5168 47.3557C89.5232 47.4292 89.5168 47.5041 89.5168 47.5786C89.5168 48.2027 89.296 48.794 88.9131 49.3293C89.6516 50.0148 90.0797 50.8352 90.0797 51.7231C90.0797 51.7975 90.0861 51.8724 90.0797 51.9459C89.8941 54.2239 86.8594 56.0331 83.1515 56.0331C82.7852 56.0331 82.4281 56.016 82.077 55.9822C80.9896 56.4237 79.6864 56.6825 78.2905 56.6825C76.9386 56.6825 75.6729 56.4432 74.6064 56.0268C74.4708 56.0322 74.3348 56.0332 74.1971 56.0332C70.3696 56.0332 67.2586 54.1042 67.2586 51.7231C67.2586 51.0959 67.4841 50.5024 67.8727 49.966C67.1322 49.2822 66.6958 48.4657 66.6958 47.5786C66.6958 45.1975 69.8068 43.2686 73.6342 43.2686C74.1014 43.2686 74.5549 43.2969 74.9953 43.3514C76.0995 42.8892 77.4225 42.6191 78.8533 42.6191Z" fill="#734B02" stroke="black" stroke-width="0.8479"/>
<path fill-rule="evenodd" clip-rule="evenodd" d="M80.6036 43.9954C81.9406 43.9954 83.1883 44.2369 84.2468 44.6447H84.3389C88.0468 44.6447 91.0815 46.454 91.2671 48.732C91.2735 48.8054 91.2671 48.8804 91.2671 48.9548C91.2671 49.5789 91.0463 50.1702 90.6633 50.7055C91.4018 51.391 91.8299 52.2115 91.8299 53.0993C91.8299 53.1737 91.8363 53.2486 91.8299 53.3221C91.6443 55.6001 88.6096 57.4093 84.9018 57.4093C84.5354 57.4093 84.1783 57.3922 83.8272 57.3583C82.7398 57.7998 81.4366 58.0586 80.0408 58.0586C78.6888 58.0586 77.4232 57.8193 76.3567 57.4029C76.221 57.4084 76.085 57.4093 75.9473 57.4093C72.1198 57.4093 69.0089 55.4803 69.0089 53.0993C69.0089 52.4721 69.2343 51.8786 69.6229 51.3421C68.8824 50.6584 68.446 49.8418 68.446 48.9547C68.446 46.5737 71.557 44.6447 75.3845 44.6447C75.8517 44.6447 76.3051 44.673 76.7455 44.7275C77.8498 44.2653 79.1727 43.9954 80.6036 43.9954Z" fill="#3B2906" fill-opacity="0.507"/>
<path fill-rule="evenodd" clip-rule="evenodd" d="M192.934 57.7146C194.994 57.7146 196.917 58.0868 198.547 58.7151H198.689C204.402 58.7151 209.078 61.5027 209.364 65.0125C209.374 65.1257 209.364 65.2411 209.364 65.3558C209.364 66.3174 209.024 67.2284 208.434 68.0532C209.572 69.1094 210.231 70.3735 210.231 71.7414C210.231 71.856 210.241 71.9715 210.231 72.0847C209.945 75.5945 205.269 78.3821 199.557 78.3821C198.992 78.3821 198.442 78.3557 197.901 78.3036C196.226 78.9838 194.218 79.3826 192.067 79.3826C189.984 79.3826 188.034 79.0139 186.391 78.3723C186.182 78.3805 185.972 78.3822 185.76 78.3822C179.863 78.3822 175.07 75.4101 175.07 71.7415C175.07 70.7752 175.417 69.8607 176.016 69.0342C174.875 67.9807 174.203 66.7227 174.203 65.3559C174.203 61.6873 178.996 58.7152 184.893 58.7152C185.613 58.7152 186.311 58.7589 186.99 58.8428C188.691 58.1307 190.73 57.7146 192.934 57.7146Z" fill="#734B02" stroke="black" stroke-width="1.3064"/>
<path fill-rule="evenodd" clip-rule="evenodd" d="M195.631 59.8352C197.691 59.8352 199.613 60.2074 201.244 60.8357H201.386C207.099 60.8357 211.775 63.6233 212.061 67.1331C212.07 67.2463 212.061 67.3617 212.061 67.4764C212.061 68.438 211.72 69.349 211.13 70.1738C212.268 71.23 212.928 72.4941 212.928 73.862C212.928 73.9766 212.938 74.0921 212.928 74.2053C212.642 77.7151 207.966 80.5027 202.253 80.5027C201.689 80.5027 201.139 80.4763 200.598 80.4241C198.922 81.1043 196.914 81.5031 194.764 81.5031C192.681 81.5031 190.731 81.1343 189.087 80.4927C188.878 80.501 188.669 80.5026 188.457 80.5026C182.56 80.5026 177.766 77.5306 177.766 73.862C177.766 72.8956 178.114 71.9812 178.713 71.1547C177.572 70.1011 176.899 68.8431 176.899 67.4763C176.899 63.8077 181.692 60.8357 187.59 60.8357C188.309 60.8357 189.008 60.8794 189.687 60.9632C191.388 60.2511 193.426 59.8352 195.631 59.8352Z" fill="#3B2906" fill-opacity="0.507"/>
</g>
<defs>
<filter id="filter0_d_5_661" x="0.144531" y="0.703857" width="350.873" height="148.972" filterUnits="userSpaceOnUse" color-interpolation-filters="sRGB">
<feFlood flood-opacity="0" result="BackgroundImageFix"/>
<feColorMatrix in="SourceAlpha" type="matrix" values="0 0 0 0 0 0 0 0 0 0 0 0 0 0 0 0 0 0 127 0" result="hardAlpha"/>
<feOffset dy="10"/>
<feGaussianBlur stdDeviation="2"/>
<feComposite in2="hardAlpha" operator="out"/>
<feColorMatrix type="matrix" values="0 0 0 0 0 0 0 0 0 0 0 0 0 0 0 0 0 0 0.25 0"/>
<feBlend mode="normal" in2="BackgroundImageFix" result="effect1_dropShadow_5_661"/>
<feBlend mode="normal" in="SourceGraphic" in2="effect1_dropShadow_5_661" result="shape"/>
</filter>
<linearGradient id="paint0_linear_5_661" x1="3.90784" y1="-12988.2" x2="33923.1" y2="-12988.2" gradientUnits="userSpaceOnUse">
<stop stop-color="#593D09"/>
<stop offset="1" stop-color="#7F5200"/>
</linearGradient>
<linearGradient id="paint1_linear_5_661" x1="158.262" y1="-12997.1" x2="18704.3" y2="-12997.1" gradientUnits="userSpaceOnUse">
<stop stop-color="#563B09"/>
<stop offset="1" stop-color="#291D04"/>
</linearGradient>
</defs>
</svg>
