<svg width="75" height="75" viewBox="0 0 75 75" fill="none" xmlns="http://www.w3.org/2000/svg">
<path d="M37.5 7.03125C20.6997 7.03125 7.03125 20.7012 7.03125 37.5C7.03125 54.3252 20.6748 67.9688 37.5 67.9688C54.3003 67.9688 67.9688 54.3003 67.9688 37.5C67.9688 20.6733 54.3267 7.03125 37.5 7.03125ZM37.5 52.8809C33.8481 52.8809 30.3458 51.4301 27.7635 48.8479C25.1812 46.2656 23.7305 42.7632 23.7305 39.1113C23.7305 35.4594 25.1812 31.9571 27.7635 29.3748C30.3458 26.7925 33.8481 25.3418 37.5 25.3418H38.1167L36.0498 23.2764C35.6652 22.8918 35.4491 22.3701 35.4491 21.8262C35.4491 21.2822 35.6652 20.7606 36.0498 20.376C36.4344 19.9914 36.9561 19.7753 37.5 19.7753C38.0439 19.7753 38.5656 19.9914 38.9502 20.376L44.8096 26.2354C45 26.4258 45.1511 26.6519 45.2542 26.9007C45.3573 27.1495 45.4103 27.4162 45.4103 27.6855C45.4103 27.9549 45.3573 28.2216 45.2542 28.4704C45.1511 28.7192 45 28.9453 44.8096 29.1357L38.9502 34.9951C38.5656 35.3797 38.0439 35.5958 37.5 35.5958C36.9561 35.5958 36.4344 35.3797 36.0498 34.9951C35.6652 34.6105 35.4491 34.0889 35.4491 33.5449C35.4491 33.001 35.6652 32.4793 36.0498 32.0947L38.6865 29.458C38.3379 29.4434 37.9395 29.4434 37.5 29.4434C35.5879 29.4434 33.7187 30.0104 32.1288 31.0727C30.5389 32.135 29.2997 33.645 28.568 35.4116C27.8362 37.1781 27.6448 39.1221 28.0178 40.9975C28.3908 42.8729 29.3116 44.5955 30.6637 45.9476C32.0158 47.2997 33.7385 48.2205 35.6139 48.5935C37.4893 48.9666 39.4332 48.7751 41.1998 48.0434C42.9664 47.3116 44.4763 46.0725 45.5386 44.4826C46.601 42.8927 47.168 41.0235 47.168 39.1113C47.168 38.5674 47.384 38.0458 47.7686 37.6612C48.1532 37.2766 48.6748 37.0605 49.2188 37.0605C49.7627 37.0605 50.2843 37.2766 50.6689 37.6612C51.0535 38.0458 51.2695 38.5674 51.2695 39.1113C51.2653 42.7619 49.8132 46.2618 47.2318 48.8431C44.6505 51.4245 41.1506 52.8766 37.5 52.8809Z" fill="#D6D6D6"/>
</svg>
